{"title":"Lauryn.Hill.DOO-WOP.(That.Thing).1998.HQ.720p.x264.AAC.[FrOnkY]","uid":15337346,"size":105026085,"categoryP":"video","categoryS":"music_videos","magnet":"?xt=urn:btih:fa56a2d44cafced1b0f83965632c1cd255255d61&amp;dn=Lauryn.Hill.DOO-WOP.%28That.Thing%29.1998.HQ.720p.x264.AAC.%5BFrOnkY%5D&amp;tr=udp%3A%2F%2Ftracker.leechers-paradise.org%3A6969&amp;tr=udp%3A%2F%2Fzer0day.ch%3A1337&amp;tr=udp%3A%2F%2Fopen.demonii.com%3A1337&amp;tr=udp%3A%2F%2Ftracker.coppersurfer.tk%3A6969&amp;tr=udp%3A%2F%2Fexodus.desync.com%3A6969","seeders":1,"leechers":0,"uploader":"HDmEntEs","files":1,"time":1468793663,"description":"Lauryn.Hill.DOO-WOP.(That.Thing).1998.HQ.720p.x264.AAC.[FrOnkY].mp4\r\n\r\n\r\nFormat                                   : MPEG-4\r\nFormat profile                           : Base Media\r\nCodec ID                                 : isom\r\nFile size                                : 100 MiB\r\nDuration                                 : 3mn 55s\r\nOverall bit rate mode                    : Variable\r\nOverall bit rate                         : 3 571 Kbps\r\n\r\nVideo\r\nID                                       : 1\r\nFormat                                   : AVC\r\nFormat/Info                              : Advanced Video Codec\r\nFormat profile                           :   \r\nFormat settings, CABAC                   : Yes\r\nFormat settings, ReFrames                : 11 frames\r\nCodec ID                                 : avc1\r\nDuration                                 : 3mn 55s\r\nBit rate                                 : 3 333 Kbps\r\nMaximum bit rate                         : 5 961 Kbps\r\nWidth                                    : 1 280 pixels\r\nHeight                                   : 548 pixels\r\nDisplay aspect ratio                     : 2.35:1\r\nFrame rate mode                          : Constant\r\nFrame rate                               : 25.000 fps\r\nColor space                              : YUV\r\nChroma subsampling                       : 4:2:0\r\nBit depth                                : 8 bits\r\nScan type                                : Progressive\r\nBits/(Pixel*Frame)                       : 0.190\r\nStream size                              : 93.5 MiB (93%)\r\nWriting library                          : x264 core 148 r2705\r\n\r\nAudio\r\nID                                       : 2\r\nFormat                                   : AAC\r\nFormat/Info                              : Advanced Audio Codec\r\nFormat profile                           : LC\r\nCodec ID                                 : 40\r\nDuration                                 : 3mn 55s\r\nBit rate mode                            : Variable\r\nBit rate                                 : 232 Kbps\r\nMaximum bit rate                         : 274 Kbps\r\nChannel(s)                               : 2 channels\r\nChannel positions                        : Front: L R\r\nSampling rate                            : 48.0 KHz\r\nCompression mode                         : Lossy\r\nStream size                              : 6.51 MiB (6%)\r\n\r\n \nhttp://i.imgur.com/X4NorNC.jpg","torrent":{"xt":"urn:btih:fa56a2d44cafced1b0f83965632c1cd255255d61","amp;dn":"Lauryn.Hill.DOO-WOP.%28That.Thing%29.1998.HQ.720p.x264.AAC.%5BFrOnkY%5D","amp;tr":["udp%3A%2F%2Ftracker.leechers-paradise.org%3A6969","udp%3A%2F%2Fzer0day.ch%3A1337","udp%3A%2F%2Fopen.demonii.com%3A1337","udp%3A%2F%2Ftracker.coppersurfer.tk%3A6969","udp%3A%2F%2Fexodus.desync.com%3A6969"],"infoHash":"fa56a2d44cafced1b0f83965632c1cd255255d61","infoHashBuffer":{"type":"Buffer","data":[250,86,162,212,76,175,206,209,176,248,57,101,99,44,28,210,85,37,93,97]},"announce":[],"urlList":[]}}